<svg width="14" height="17" viewBox="0 0 14 17" fill="none" xmlns="http://www.w3.org/2000/svg">
<path d="M2 1H9.06032C9.3232 1 9.57551 1.10352 9.76264 1.28814L12.7023 4.18845C12.8928 4.37636 13 4.63276 13 4.90031V15C13 15.5523 12.5523 16 12 16H2C1.44772 16 1 15.5523 1 15V2C1 1.44772 1.44772 1 2 1Z" stroke="black"/>
<path d="M9 1V4C9 4.55228 9.44772 5 10 5H13" stroke="black"/>
<path d="M4 12H8" stroke="black" stroke-linecap="round" stroke-linejoin="round"/>
<path d="M4 10L10 10" stroke="black" stroke-linecap="round" stroke-linejoin="round"/>
<path d="M4 8L10 8" stroke="black" stroke-linecap="round" stroke-linejoin="round"/>
</svg>
